# xmcd
#
# Track frame offsets:
# 150
# 172712
# 206403
#
# Disc length: 3315 seconds
#
# Revision: 0
# Processed by: cddbd v1.4PL0 Copyright (c) Steve Scherf et al.
# Submitted via: Audion 3.0.2 (http://www.panic.com/audion/)
#
DISCID=190cf103
DTITLE=Louie Giglio - Boy Meets Girl
DYEAR=1900
DGENRE=
TTITLE0=A Healthy Marriage Starts Now - I
TTITLE1=A Healthy Marriage Starts Now - II
TTITLE2=A Healthy Marriage Starts Now - III
EXTD=
EXTT0=
EXTT1=
EXTT2=
PLAYORDER=
